<?xml version="1.0" encoding="utf-8"?>
<!-- Generator: Adobe Illustrator 27.3.1, SVG Export Plug-In . SVG Version: 6.00 Build 0)  -->
<svg version="1.1" id="Layer_1" xmlns="http://www.w3.org/2000/svg" xmlns:xlink="http://www.w3.org/1999/xlink" x="0px" y="0px"
	 viewBox="0 0 1212.17 300" style="enable-background:new 0 0 1212.17 300;" xml:space="preserve">
<style type="text/css">
	.st0{fill:#FFFFFF;}
</style>
<g>
	<path class="st0" d="M220.71,220.66l-79.06,79.06c21.07,1.18,42.15-2.11,61.87-9.64c19.72-7.53,37.62-19.13,52.55-34.06
		c14.92-14.92,26.53-32.83,34.06-52.55c7.53-19.72,10.81-40.8,9.64-61.87L220.71,220.66z"/>
	<path class="st0" d="M167.86,227.4l15.27-44.32l44.32-15.27c10.77-3.72,20.56-9.83,28.61-17.88l38.83-38.83
		c-5.72-21.34-16.08-41.15-30.35-58.03l-52.67,52.67c-8.05,8.06-14.16,17.84-17.88,28.61l-15.26,44.32l-44.32,15.27
		c-10.77,3.7-20.56,9.83-28.61,17.88l-52.67,52.67c16.87,14.27,36.69,24.63,58.03,30.35l38.83-38.83
		C158.04,247.95,164.15,238.17,167.86,227.4z"/>
	<path class="st0" d="M106.01,165.53l15.26-44.32v0.01l44.32-15.27c10.77-3.72,20.55-9.83,28.61-17.88l52.67-52.67
		c-16.88-14.27-36.69-24.63-58.03-30.35l-38.83,38.83c-8.05,8.05-14.16,17.84-17.88,28.61l-15.27,44.32l-44.32,15.27
		c-10.77,3.72-20.55,9.83-28.61,17.88L5.11,188.78c5.72,21.34,16.08,41.17,30.35,58.03l52.67-52.67
		C96.18,186.09,102.31,176.3,106.01,165.53z"/>
	<path class="st0" d="M158.34,0.18c-21.07-1.18-42.15,2.1-61.87,9.64c-19.72,7.53-37.63,19.13-52.55,34.06
		C29.01,58.81,17.4,76.71,9.87,96.42s-10.81,40.8-9.64,61.87l79.06-79.06L158.34,0.18z"/>
	<path class="st0" d="M438.56,50.48h-39.11v86.23h12.25v-34.37h25.99c19.37,0,31-5.37,31-26.12
		C468.68,55.98,457.31,50.48,438.56,50.48z M437.69,92.72h-25.99V60.11h25.99c10.87,0,18.37,2.62,18.37,16.25
		C456.06,90.1,448.56,92.72,437.69,92.72z"/>
	<path class="st0" d="M533.43,91.47c0-12.12-8-18.99-26.74-18.99c-17.74,0-26.99,5.62-27.99,20.24h11.25
		c0.62-8.75,6.12-11.75,16.12-11.75c10.87,0,15.75,3.37,15.75,11.37v6.37l-21.25,2.12c-12.75,1.25-22.99,6-22.99,19.25
		c0,12.37,7.5,18.12,22.74,18.12c13.12,0,19.12-5.5,21.99-11.37c0.13,3.63,0.5,7,1.25,9.87h11.12c-0.75-2.87-1.25-8.37-1.25-12.5
		V91.47z M521.81,110.59c0,11-4.25,19.12-19.12,19.12c-8.25,0-13.37-2.87-13.37-10c0-6.37,3-9.62,15-10.87l17.5-2V110.59z"/>
	<path class="st0" d="M561.94,107.97c0-16,6-23.62,18.12-23.62h6.25V74.23h-6.12c-9.87,0-15.24,5.75-18.25,14v-14h-11.75v62.49
		h11.75V107.97z"/>
	<path class="st0" d="M631.93,136.71v-8.75h-8.25c-7,0-9-1.37-9-7.25V82.97h17.25v-8.75h-17.25V55.73h-11.75v18.49h-9.87v8.75h9.87
		v39.49c0,9.87,4,14.25,17.87,14.25H631.93z"/>
	<path class="st0" d="M697.81,138.46c20.24,0,30.87-7.87,30.87-32.99c0-24.74-10.5-33.12-30.74-33.12c-20.12,0-31,8.37-31,33.12
		C666.94,130.59,677.69,138.46,697.81,138.46z M697.81,80.98c12,0,18.87,4.25,18.87,24.49c0,20.12-6.88,24.49-18.87,24.49
		s-18.75-4.37-18.75-24.49C679.06,85.23,685.81,80.98,697.81,80.98z"/>
	<path class="st0" d="M745.06,64.73v9.5h-9.87v8.75h9.87v53.74h11.75V82.97h17.25v-8.75h-17.25v-7.75c0-5.87,2-7.25,9-7.25h8.25
		v-8.75h-11.12C749.06,50.48,745.06,54.86,745.06,64.73z"/>
	<path class="st0" d="M440.81,201.09l-17-1.75c-11-1.25-15.62-5.12-15.62-14.37c0-10.12,7.37-14.62,21.75-14.62
		c15.62,0,23.87,4.38,24.12,19h12.12c-0.13-20-11.37-28.24-36.49-28.24c-22.62,0-33.61,8.87-33.61,24.87
		c0,15.87,9.12,21.62,23.87,23.24l18.25,1.88c14.12,1.5,17.12,6.25,17.12,14.5c0,12.25-7.62,16.12-23.37,16.12
		c-21.62,0-24.87-10.5-24.49-20.74h-12.5c0.13,23.12,13.5,30.12,37.24,30.12c20.87,0,35.12-6.5,35.12-25.87
		C467.31,206.6,454.81,202.6,440.81,201.09z"/>
	<path class="st0" d="M532.93,203.97c0-12.12-8-18.99-26.74-18.99c-17.74,0-26.99,5.62-27.99,20.24h11.25
		c0.62-8.75,6.12-11.75,16.12-11.75c10.87,0,15.75,3.37,15.75,11.37v6.38l-21.25,2.12c-12.74,1.25-22.99,6-22.99,19.24
		c0,12.37,7.5,18.12,22.74,18.12c13.12,0,19.12-5.5,22-11.37c0.12,3.62,0.5,7,1.25,9.87h11.12c-0.75-2.88-1.25-8.37-1.25-12.5
		V203.97z M521.31,223.09c0,11-4.25,19.12-19.12,19.12c-8.25,0-13.37-2.88-13.37-10c0-6.37,3-9.62,15-10.87l17.5-2V223.09z"/>
	<path class="st0" d="M584.06,185.35c-12.25,0-18.99,5.75-22.62,13.99v-12.62h-11.75v62.49h11.75v-30.87
		c0-15.74,7.75-23.99,18.87-23.99c9.87,0,12.75,4.25,12.75,14.75v40.12h11.74v-42.36C604.81,193.22,599.18,185.35,584.06,185.35z"/>
	<path class="st0" d="M666.56,196.6c-4.25-7.87-11.5-11.75-21.62-11.75c-17.37,0-26.87,8.37-26.87,33.12
		c0,25.12,9.62,32.99,26.87,32.99c10.12,0,17.37-3.87,21.62-11.75v10h11.75v-86.23h-11.75V196.6z M647.94,242.46
		c-11.25,0-17.75-4.38-17.75-24.49c0-20.25,6.5-24.5,17.75-24.5c11,0,18.75,6,18.75,24.5C666.68,236.34,658.94,242.46,647.94,242.46
		z"/>
	<polygon class="st0" points="718.94,240.21 700.69,186.72 688.32,186.72 710.06,249.21 726.94,249.21 748.68,186.72 736.81,186.72 
			"/>
	<rect x="758.69" y="186.72" class="st0" width="11.75" height="62.49"/>
	<path class="st0" d="M764.57,162.11c-5,0-7.12,1.88-7.12,6.63c0,4.75,2.12,6.75,7.12,6.75s7-2,7-6.75
		C771.56,163.98,769.57,162.11,764.57,162.11z"/>
	<polygon class="st0" points="838.06,186.72 822.56,186.72 798.69,211.59 798.69,162.98 786.94,162.98 786.94,249.21 798.69,249.21 
		798.69,219.47 826.81,249.21 841.8,249.21 809.06,215.09 	"/>
	<path class="st0" d="M911.68,215.47h26.62c0.75,22.5-7.37,26.24-25.37,26.24c-16.75,0-26.25-4.87-26.25-35.62
		s9.38-35.62,26.37-35.62c13.5,0,23.12,2.75,24.62,19.24h12c-1.38-22.99-15.25-28.62-36.74-28.62c-25.12,0-38.87,9-38.87,44.99
		s13.75,44.99,38.87,44.99c26.62,0,37.37-7.12,37.37-35.74v-9.5h-38.62V215.47z"/>
	<path class="st0" d="M976.31,200.72v-14h-11.75v62.49h11.75v-28.75c0-16,6-23.62,18.12-23.62h6.25v-10.12h-6.12
		C984.68,186.72,979.31,192.47,976.31,200.72z"/>
	<path class="st0" d="M1037.18,184.85c-20.12,0-30.99,8.37-30.99,33.12c0,25.12,10.75,32.99,30.87,32.99
		c20.24,0,30.86-7.87,30.86-32.99C1067.92,193.22,1057.43,184.85,1037.18,184.85z M1037.06,242.46c-12,0-18.75-4.38-18.75-24.49
		c0-20.25,6.75-24.5,18.75-24.5s18.87,4.25,18.87,24.5C1055.93,238.09,1049.05,242.46,1037.06,242.46z"/>
	<path class="st0" d="M1123.68,217.59c0,15.75-7.25,23.99-18.37,23.99c-10,0-12.62-4-12.62-13.87v-40.99h-11.75v42.87
		c0,13.37,5.38,21,20.62,21c12.12,0,18.62-5.62,22.12-13.75v12.37h11.75v-62.49h-11.75V217.59z"/>
	<path class="st0" d="M1185.3,184.98c-10.12,0-17.37,3.87-21.62,11.75v-10h-11.75v84.98h11.75v-32.37
		c4.25,7.87,11.5,11.75,21.74,11.75c17.25,0,26.74-8.37,26.74-33.12C1212.17,192.85,1202.67,184.98,1185.3,184.98z M1182.43,242.46
		c-11.12,0-18.87-6-18.87-24.49c0-18.37,7.75-24.5,18.87-24.5c11.25,0,17.74,4.38,17.74,24.5
		C1200.17,238.21,1193.68,242.46,1182.43,242.46z"/>
</g>
</svg>
