<?xml version="1.0" encoding="UTF-8"?><svg id="Layer_1" xmlns="http://www.w3.org/2000/svg" viewBox="0 0 283.46 65.2"><defs><style>.cls-1{fill:#ffc56e;}.cls-1,.cls-2{fill-rule:evenodd;}.cls-2{fill:#ed8b00;}</style></defs><path d="M55.85,26.71c1.23-2.27,2.94-4.03,5.12-5.28,2.18-1.25,4.68-1.88,7.5-1.88,3.63,0,6.63.91,9.01,2.72,2.38,1.81,3.97,4.36,4.78,7.63h-7.98c-.42-1.27-1.14-2.26-2.14-2.98-1-.72-2.24-1.08-3.72-1.08-2.11,0-3.79.77-5.02,2.3-1.23,1.53-1.85,3.71-1.85,6.52s.62,4.94,1.85,6.47c1.23,1.53,2.9,2.3,5.02,2.3,2.99,0,4.95-1.34,5.86-4.02h7.98c-.81,3.17-2.41,5.69-4.81,7.56s-5.39,2.8-8.98,2.8c-2.82,0-5.32-.62-7.5-1.88-2.18-1.25-3.89-3.01-5.12-5.28-1.23-2.27-1.85-4.92-1.85-7.95s.62-5.68,1.85-7.95Z"/><path d="M93.4,20.03v29.27h-7.4v-29.27h7.4Z"/><path d="M143.62,22.91c2.2,2.2,3.3,5.27,3.3,9.22v17.17h-7.4v-16.17c0-2.29-.58-4.04-1.74-5.26-1.16-1.22-2.75-1.82-4.76-1.82s-3.6.61-4.78,1.82c-1.18,1.22-1.77,2.97-1.77,5.26v16.17h-7.4v-16.17c0-2.29-.58-4.04-1.74-5.26-1.16-1.22-2.75-1.82-4.75-1.82s-3.66.61-4.83,1.82c-1.18,1.22-1.77,2.97-1.77,5.26v16.17h-7.4v-29.27h7.4v3.54c.95-1.23,2.17-2.2,3.67-2.91,1.5-.7,3.14-1.06,4.94-1.06,2.29,0,4.33.48,6.13,1.45,1.8.97,3.19,2.35,4.17,4.15.95-1.69,2.33-3.05,4.15-4.07,1.81-1.02,3.78-1.53,5.89-1.53,3.59,0,6.49,1.1,8.69,3.3Z"/><path d="M152.31,26.69c1.18-2.29,2.78-4.05,4.81-5.28,2.03-1.23,4.29-1.85,6.79-1.85,2.18,0,4.09.44,5.73,1.32,1.64.88,2.95,1.99,3.94,3.33v-4.17h7.45v29.27h-7.45v-4.28c-.95,1.37-2.26,2.51-3.94,3.41-1.67.9-3.6,1.35-5.78,1.35-2.47,0-4.71-.63-6.74-1.9-2.03-1.27-3.63-3.05-4.81-5.36-1.18-2.31-1.77-4.96-1.77-7.95s.59-5.58,1.77-7.87ZM172.52,30.04c-.71-1.29-1.66-2.27-2.85-2.96s-2.48-1.03-3.86-1.03-2.64.34-3.8,1c-1.16.67-2.1,1.65-2.83,2.93-.72,1.29-1.08,2.81-1.08,4.57s.36,3.3,1.08,4.62c.72,1.32,1.67,2.33,2.85,3.04,1.18.7,2.44,1.06,3.78,1.06s2.66-.34,3.86-1.03,2.15-1.67,2.85-2.96c.7-1.29,1.06-2.83,1.06-4.62s-.35-3.34-1.06-4.62Z"/><path d="M193.46,26.11v14.16c0,.99.24,1.7.71,2.14.47.44,1.28.66,2.4.66h3.43v6.23h-4.65c-6.23,0-9.35-3.03-9.35-9.09V14.1h7.45v5.93h6.55v6.08h-6.55Z"/><path d="M215.2,20.93c1.53-.88,3.28-1.32,5.26-1.32v7.77h-1.96c-2.32,0-4.08.55-5.26,1.64-1.18,1.09-1.77,2.99-1.77,5.71v14.58h-7.4v-29.27h7.4v4.54c.95-1.55,2.19-2.76,3.72-3.65Z"/><path d="M228.97,47.9c-2.25-1.25-4.02-3.02-5.31-5.31-1.29-2.29-1.93-4.93-1.93-7.92s.66-5.63,1.98-7.92c1.32-2.29,3.13-4.06,5.41-5.31,2.29-1.25,4.84-1.88,7.66-1.88s5.37.63,7.66,1.88c2.29,1.25,4.1,3.02,5.42,5.31,1.32,2.29,1.98,4.93,1.98,7.92s-.68,5.64-2.03,7.92c-1.36,2.29-3.19,4.06-5.49,5.31-2.31,1.25-4.89,1.88-7.74,1.88s-5.35-.62-7.61-1.88ZM240.36,42.35c1.18-.65,2.12-1.63,2.83-2.93.7-1.3,1.06-2.89,1.06-4.75,0-2.78-.73-4.92-2.19-6.42-1.46-1.5-3.25-2.25-5.36-2.25s-3.88.75-5.31,2.25c-1.43,1.5-2.14,3.64-2.14,6.42s.7,4.92,2.09,6.42c1.39,1.5,3.14,2.25,5.26,2.25,1.34,0,2.6-.33,3.78-.98Z"/><path d="M280.24,22.91c2.15,2.2,3.22,5.27,3.22,9.22v17.17h-7.4v-16.17c0-2.32-.58-4.11-1.74-5.36-1.16-1.25-2.75-1.88-4.75-1.88s-3.66.63-4.83,1.88c-1.18,1.25-1.77,3.04-1.77,5.36v16.17h-7.4v-29.27h7.4v3.65c.99-1.27,2.24-2.26,3.78-2.99,1.53-.72,3.21-1.08,5.05-1.08,3.49,0,6.3,1.1,8.45,3.3Z"/><path class="cls-2" d="M30.37,0C21.82,0,14.41,3.54,6.83,12.62-5.35,27.19-.38,55.13,14.96,62.21c-7.28-7.58-4.28-17.61,2.94-25.8,10.07-11.42,19.08-12.83,23.14-17.99,5.68-7.22,1.23-18.42-10.67-18.42Z"/><path class="cls-1" d="M42.86,50.78c-2.62-5.61-14.22-4.71-23.59-12.15-11.51,13.73-4.63,26.56,9.34,26.56,9.25,0,17.52-7.41,14.25-14.41Z"/></svg>